<?xml version="1.0" encoding="UTF-8" standalone="no" ?>
<!DOCTYPE svg PUBLIC "-//W3C//DTD SVG 1.1//EN" "http://www.w3.org/Graphics/SVG/1.1/DTD/svg11.dtd">
<svg xmlns="http://www.w3.org/2000/svg" xmlns:xlink="http://www.w3.org/1999/xlink" version="1.1" width="400" height="400" viewBox="0 0 400 400" xml:space="preserve">
<desc>Created with Fabric.js 3.6.2</desc>
<defs>
</defs>
<g transform="matrix(0.39 0 0 0.39 200 199.39)"  >
<path style="stroke: none; stroke-width: 1; stroke-dasharray: none; stroke-linecap: butt; stroke-dashoffset: 0; stroke-linejoin: round; stroke-miterlimit: 2; fill: rgb(93,52,148); fill-rule: nonzero; opacity: 1;"  transform=" translate(-256, -254.44)" d="M 512 256 c 0 -141.385 -114.615 -256 -256 -256 c -141.385 0 -256 114.615 -256 256 c 0 127.777 93.616 233.685 216 252.89 l 0 -178.89 l -65 0 l 0 -74 l 65 0 l 0 -56.4 c 0 -64.16 38.219 -99.6 96.695 -99.6 c 28.009 0 57.305 5 57.305 5 l 0 63 l -32.281 0 c -31.801 0 -41.719 19.733 -41.719 39.978 l 0 48.022 l 71 0 l -11.35 74 l -59.65 0 l 0 178.89 c 122.385 -19.205 216 -125.113 216 -252.89 Z" stroke-linecap="round" />
</g>
<g transform="matrix(0.39 0 0 0.39 201.76 219.53)"  >
<path style="stroke: none; stroke-width: 1; stroke-dasharray: none; stroke-linecap: butt; stroke-dashoffset: 0; stroke-linejoin: round; stroke-miterlimit: 2; fill: rgb(255,255,255); fill-rule: nonzero; opacity: 1;"  transform=" translate(-260.5, -306)" d="M 355.65 330 l 11.35 -74 l -71 0 l 0 -48.022 c 0 -20.245 9.917 -39.978 41.719 -39.978 l 32.281 0 l 0 -63 c 0 0 -29.297 -5 -57.305 -5 c -58.476 0 -96.695 35.44 -96.695 99.6 l 0 56.4 l -65 0 l 0 74 l 65 0 l 0 178.89 c 13.033 2.045 26.392 3.11 40 3.11 c 13.608 0 26.966 -1.065 40 -3.11 l 0 -178.89 l 59.65 0 Z" stroke-linecap="round" />
</g>
</svg>