<?xml version="1.0" encoding="UTF-8" standalone="no" ?>
<!DOCTYPE svg PUBLIC "-//W3C//DTD SVG 1.1//EN" "http://www.w3.org/Graphics/SVG/1.1/DTD/svg11.dtd">
<svg xmlns="http://www.w3.org/2000/svg" xmlns:xlink="http://www.w3.org/1999/xlink" version="1.1" width="400" height="400" viewBox="0 0 400 400" xml:space="preserve">
<desc>Created with Fabric.js 3.6.2</desc>
<defs>
</defs>
<g transform="matrix(0.39 0 0 0.39 200.01 200)" id="Layer_1"  >
<path style="stroke: none; stroke-width: 1; stroke-dasharray: none; stroke-linecap: butt; stroke-dashoffset: 0; stroke-linejoin: miter; stroke-miterlimit: 4; fill: rgb(93,52,148); fill-rule: evenodd; opacity: 1;"  transform=" translate(-256.01, -256)" d="M 485 29.72 c 11.45 15.13 16.61 40.21 19.15 70.7 c 3.36 45.5 4.71 100.1 6 156.52 c -1.67 57.47 -2.35 115.43 -6 156.52 c -2.88 31.54 -9 52.66 -19.22 65.47 c -13 12.79 -37.94 23.59 -73.5 26.15 c -43.25 3.69 -96.61 3.65 -155.48 5.1 c -65.44 -1.12 -109.82 -0.64 -156.38 -5.08 c -36.32 -2.52 -60.08 -13.19 -74.7 -26.07 c -10.83 -14.54 -14 -30 -17 -66.24 c -3.75 -41.85 -4.58 -98.56 -6 -155.54 C 4 200.57 4.13 143.44 7.9 100.74 C 10.43 67.05 14.42 44.4 24.65 30 C 39 17.77 63.48 11.69 100 8.69 c 50 -5.85 102.06 -7 155.88 -6.87 c 55.39 0.09 108.56 1.67 156 6.34 c 32 2.56 58.48 8.07 73.07 21.56 Z" stroke-linecap="round" />
</g>
<g transform="matrix(0.39 0 0 0.39 197.59 197.25)" id="Layer_1"  >
<path style="stroke: none; stroke-width: 1; stroke-dasharray: none; stroke-linecap: butt; stroke-dashoffset: 0; stroke-linejoin: miter; stroke-miterlimit: 4; fill: rgb(255,255,255); fill-rule: nonzero; opacity: 1;"  transform=" translate(-249.87, -249)" d="M 249.83 102.87 a 149.85 149.85 0 0 0 -47.37 292 c 7.49 1.39 10.24 -3.25 10.24 -7.21 c 0 -3.57 -0.14 -15.38 -0.2 -27.9 C 170.81 368.83 162 342.09 162 342.09 c -6.82 -17.32 -16.64 -21.92 -16.64 -21.92 c -13.6 -9.3 1 -9.11 1 -9.11 c 15 1.06 23 15.44 23 15.44 c 13.36 22.9 35.05 16.28 43.6 12.45 c 1.34 -9.68 5.23 -16.29 9.51 -20 c -33.28 -3.79 -68.27 -16.64 -68.27 -74 a 58 58 0 0 1 15.44 -40.22 c -1.56 -3.78 -6.68 -19 1.45 -39.65 c 0 0 12.58 -4 41.21 15.36 a 142.09 142.09 0 0 1 75 0 C 316 161 328.53 165 328.53 165 c 8.16 20.64 3 35.88 1.47 39.65 a 57.87 57.87 0 0 1 15.42 40.22 c 0 57.55 -35.05 70.22 -68.42 73.93 c 5.37 4.65 10.16 13.77 10.16 27.75 c 0 20 -0.17 36.18 -0.17 41.12 c 0 4 2.7 8.66 10.29 7.19 a 149.85 149.85 0 0 0 -47.45 -292 Z" stroke-linecap="round" />
</g>
<g transform="matrix(0.39 0 0 0.39 160.19 224.04)" id="Layer_1"  >
<path style="stroke: none; stroke-width: 1; stroke-dasharray: none; stroke-linecap: butt; stroke-dashoffset: 0; stroke-linejoin: miter; stroke-miterlimit: 4; fill: rgb(255,255,255); fill-rule: nonzero; opacity: 1;"  transform=" translate(-154.8, -317.1)" d="M 156.75 318 c -0.33 0.75 -1.5 1 -2.57 0.46 s -1.7 -1.5 -1.34 -2.25 s 1.49 -1 2.58 -0.47 s 1.71 1.51 1.33 2.26 Z" stroke-linecap="round" />
</g>
<g transform="matrix(0.39 0 0 0.39 162.66 226.3)" id="Layer_1"  >
<path style="stroke: none; stroke-width: 1; stroke-dasharray: none; stroke-linecap: butt; stroke-dashoffset: 0; stroke-linejoin: miter; stroke-miterlimit: 4; fill: rgb(255,255,255); fill-rule: nonzero; opacity: 1;"  transform=" translate(-161.08, -322.86)" d="M 162.82 324.76 c -0.71 0.66 -2.11 0.35 -3.06 -0.69 s -1.16 -2.44 -0.44 -3.11 s 2.09 -0.35 3.07 0.69 s 1.17 2.44 0.43 3.11 Z" stroke-linecap="round" />
</g>
<g transform="matrix(0.39 0 0 0.39 165.01 229.49)" id="Layer_1"  >
<path style="stroke: none; stroke-width: 1; stroke-dasharray: none; stroke-linecap: butt; stroke-dashoffset: 0; stroke-linejoin: miter; stroke-miterlimit: 4; fill: rgb(255,255,255); fill-rule: nonzero; opacity: 1;"  transform=" translate(-167.06, -330.95)" d="M 168.73 333.39 c -0.92 0.64 -2.42 0 -3.35 -1.29 s -0.92 -2.93 0 -3.57 s 2.41 -0.06 3.35 1.26 s 0.92 3 0 3.61 Z" stroke-linecap="round" />
</g>
<g transform="matrix(0.39 0 0 0.39 167.93 232.87)" id="Layer_1"  >
<path style="stroke: none; stroke-width: 1; stroke-dasharray: none; stroke-linecap: butt; stroke-dashoffset: 0; stroke-linejoin: miter; stroke-miterlimit: 4; fill: rgb(255,255,255); fill-rule: nonzero; opacity: 1;"  transform=" translate(-174.49, -339.53)" d="M 176.82 341.73 c -0.82 0.91 -2.57 0.66 -3.85 -0.57 s -1.67 -2.92 -0.85 -3.83 s 2.59 -0.65 3.88 0.57 s 1.7 2.93 0.82 3.83 Z" stroke-linecap="round" />
</g>
<g transform="matrix(0.39 0 0 0.39 172.03 235.27)" id="Layer_1"  >
<path style="stroke: none; stroke-width: 1; stroke-dasharray: none; stroke-linecap: butt; stroke-dashoffset: 0; stroke-linejoin: miter; stroke-miterlimit: 4; fill: rgb(255,255,255); fill-rule: nonzero; opacity: 1;"  transform=" translate(-184.9, -345.63)" d="M 188 346.57 c -0.36 1.17 -2 1.71 -3.74 1.21 s -2.8 -1.89 -2.46 -3.07 s 2 -1.74 3.75 -1.2 s 2.8 1.88 2.45 3.07 Z" stroke-linecap="round" />
</g>
<g transform="matrix(0.39 0 0 0.39 176.8 236.01)" id="Layer_1"  >
<path style="stroke: none; stroke-width: 1; stroke-dasharray: none; stroke-linecap: butt; stroke-dashoffset: 0; stroke-linejoin: miter; stroke-miterlimit: 4; fill: rgb(255,255,255); fill-rule: nonzero; opacity: 1;"  transform=" translate(-197.03, -347.51)" d="M 200.25 347.47 c 0 1.24 -1.4 2.26 -3.18 2.28 s -3.24 -1 -3.26 -2.18 s 1.41 -2.26 3.2 -2.29 s 3.24 1 3.24 2.19 Z" stroke-linecap="round" />
</g>
<g transform="matrix(0.39 0 0 0.39 181.31 235.44)" id="Layer_1"  >
<path style="stroke: none; stroke-width: 1; stroke-dasharray: none; stroke-linecap: butt; stroke-dashoffset: 0; stroke-linejoin: miter; stroke-miterlimit: 4; fill: rgb(255,255,255); fill-rule: nonzero; opacity: 1;"  transform=" translate(-208.48, -346.09)" d="M 211.66 345.52 c 0.21 1.2 -1 2.44 -2.79 2.77 s -3.35 -0.43 -3.57 -1.62 s 1 -2.47 2.78 -2.79 s 3.36 0.42 3.58 1.64 Z" stroke-linecap="round" />
</g>
</svg>